<svg viewBox="0 0 64 64" xmlns="http://www.w3.org/2000/svg">
  <defs>
    <linearGradient id="fv-grad" x1="0" y1="0" x2="64" y2="64" gradientUnits="userSpaceOnUse">
      <stop offset="0" stop-color="#06B6D4"/>
      <stop offset="1" stop-color="#4F46E5"/>
    </linearGradient>
    <mask id="fv-flask">
      <rect width="64" height="64" fill="white"/>
      <path d="M28 20h8v2h-1v6.5l5.2 9.4c1.4 2.5-.4 5.6-3.3 5.6H27.1c-2.9 0-4.7-3.1-3.3-5.6L29 28.5V22h-1v-2z" fill="black"/>
    </mask>
  </defs>
  <path d="M17 46c-5.5 0-10-4.5-10-10 0-5 3.7-9.2 8.5-9.9C16.8 20.3 22 16 28 16c5.1 0 9.5 3.1 11.3 7.5.9-.3 1.8-.5 2.7-.5 5 0 9 4 9 9 0 1.1-.2 2.2-.6 3.2 2.2 1.2 3.6 3.5 3.6 6.1 0 3.9-3.1 7.1-7 7.1H17z" fill="url(#fv-grad)" mask="url(#fv-flask)"/>
</svg>
